HIERARCHY
ROOT Hips
{
	OFFSET -3.958830 18.904000 13.208200
	CHANNELS 6 Xposition Yposition Zposition Zrotation Yrotation Xrotation 
	JOINT LHipJoint
	{
		OFFSET 0.000000 0.000000 0.000000
		CHANNELS 3 Zrotation Yrotation Xrotation
		JOINT LeftUpLeg
		{
			OFFSET 1.800000 -1.400000 0.085000
			CHANNELS 3 Zrotation Yrotation Xrotation
			JOINT LeftLeg
			{
				OFFSET 2.215000 -6.000000 0.000000
				CHANNELS 3 Zrotation Yrotation Xrotation
				JOINT LeftFoot
				{
					OFFSET 2.500000 -6.900000 0.000000
					CHANNELS 3 Zrotation Yrotation Xrotation
					JOINT LeftToeBase
					{
						OFFSET 0.200000 -0.500000 1.950000
						CHANNELS 3 Zrotation Yrotation Xrotation
						End Site
						{
							OFFSET 0.000000 0.000000 0.000000
						}
					}
				}
			}
		}
	}
	JOINT RHipJoint
	{
		OFFSET 0.000000 0.000000 0.000000
		CHANNELS 3 Zrotation Yrotation Xrotation
		JOINT RightUpLeg
		{
			OFFSET -1.800000 -1.400000 0.085000
			CHANNELS 3 Zrotation Yrotation Xrotation
			JOINT RightLeg
			{
				OFFSET -2.215000 -6.000000 0.000000
				CHANNELS 3 Zrotation Yrotation Xrotation
				JOINT RightFoot
				{
					OFFSET -2.500000 -6.900000 0.000000
					CHANNELS 3 Zrotation Yrotation Xrotation
					JOINT RightToeBase
					{
						OFFSET -0.200000 -0.500000 1.950000
						CHANNELS 3 Zrotation Yrotation Xrotation
						End Site
						{
							OFFSET 0.000000 0.000000 0.000000
						}
					}
				}
			}
		}
	}
	JOINT LowerBack
	{
		OFFSET 0.000000 0.000000 0.000000
		CHANNELS 3 Zrotation Yrotation Xrotation
		JOINT Spine
		{
			OFFSET -0.087000 1.940000 -0.288900
			CHANNELS 3 Zrotation Yrotation Xrotation
			JOINT Spine1
			{
				OFFSET 0.000000 1.950000 0.060000
				CHANNELS 3 Zrotation Yrotation Xrotation
				JOINT Neck
				{
					OFFSET 0.000000 0.000000 0.000000
					CHANNELS 3 Zrotation Yrotation Xrotation
					JOINT Neck1
					{
						OFFSET 0.000000 1.600000 0.340000
						CHANNELS 3 Zrotation Yrotation Xrotation
						JOINT Head
						{
							OFFSET 0.000000 1.667000 -0.240000
							CHANNELS 3 Zrotation Yrotation Xrotation
							End Site
							{
								OFFSET 0.000000 0.000000 0.000000
							}
						}
					}
				}
				JOINT LeftShoulder
				{
					OFFSET 0.000000 0.000000 0.000000
					CHANNELS 3 Zrotation Yrotation Xrotation
					JOINT LeftArm
					{
						OFFSET 2.700000 1.550000 -0.730000
						CHANNELS 3 Zrotation Yrotation Xrotation
						JOINT LeftForeArm
						{
							OFFSET 5.450000 0.000000 0.000000
							CHANNELS 3 Zrotation Yrotation Xrotation
							JOINT LeftHand
							{
								OFFSET 3.450000 0.000000 0.000000
								CHANNELS 3 Zrotation Yrotation Xrotation
								JOINT LeftHandIndex1
								{
									OFFSET 0.750000 0.000000 0.000000
									CHANNELS 3 Zrotation Yrotation Xrotation
									End Site
									{
										OFFSET 0.000000 0.000000 0.000000
									}
								}
							}
						}
					}
				}
				JOINT RightShoulder
				{
					OFFSET 0.000000 0.000000 0.000000
					CHANNELS 3 Zrotation Yrotation Xrotation
					JOINT RightArm
					{
						OFFSET -2.700000 1.550000 -0.730000
						CHANNELS 3 Zrotation Yrotation Xrotation
						JOINT RightForeArm
						{
							OFFSET -5.450000 0.000000 0.000000
							CHANNELS 3 Zrotation Yrotation Xrotation
							JOINT RightHand
							{
								OFFSET -3.450000 0.000000 0.000000
								CHANNELS 3 Zrotation Yrotation Xrotation
								JOINT RightHandIndex1
								{
									OFFSET -0.750000 0.000000 0.000000
									CHANNELS 3 Zrotation Yrotation Xrotation
									End Site
									{
										OFFSET 0.000000 0.000000 0.000000
									}
								}
							}
						}
					}
				}
			}
		}
	}
}
MOTION
Frames: 14
Frame Time: 0.016667
20.443210 16.600540 -26.884890 3.747978 -17.620096 -6.164081 -15.652050 13.607959 3.879690 -14.530659 -4.289623 -15.751945 13.569628 1.641723 46.730773 -0.114520 7.638515 1.878427 0.005480 -0.229440 0.079720 17.867606 -9.106817 3.914837 -3.337954 8.014213 -34.714296 12.802035 -8.165777 31.722849 -0.338409 -4.327652 2.672276 0.023110 0.262140 -0.006020 -2.093846 -4.608629 -8.829346 1.723326 -0.198699 25.243964 2.027305 0.408241 13.543369 5.015064 -4.457498 -22.533070 -10.749515 -3.489846 32.483328 -1.436280 -6.369790 -25.125340 -5.190284 -38.971671 10.888610 -32.172819 -35.650819 -5.056668 -9.121805 -48.995984 0.454046 -3.027340 2.729759 0.860220 -0.091910 0.029110 -0.068400 -2.938373 46.262575 11.721193 10.738489 11.998572 -29.569063 -70.961022 43.123909 -34.378151 2.446240 -1.307350 -0.547000 0.593590 0.373390 -0.243020 
20.338110 16.625920 -26.823620 4.040179 -19.590905 -6.066505 -15.626129 14.120935 3.389543 -10.489865 -1.865058 -12.461626 10.521072 3.813005 43.376325 -0.287417 7.362655 2.014124 -0.057220 -0.363930 0.074240 17.833318 -9.144834 4.103718 -1.654175 9.239052 -34.001349 11.118297 -7.237023 32.019135 -0.280673 -4.071926 2.794114 -0.019540 0.318410 -0.067970 -1.980396 -5.015972 -8.718507 1.026355 0.330190 25.105684 1.948780 1.100109 12.729273 5.636240 -6.375806 -23.270833 -14.657813 -1.848777 32.397851 -0.011620 -6.156300 -25.609030 -5.792583 -38.382183 10.789505 -31.307527 -35.851187 -4.348672 -9.363878 -48.247397 0.716375 -3.019242 2.613339 0.946830 -0.115380 -0.016410 -0.078330 -2.647585 47.598575 11.594548 5.999605 12.323037 -27.694136 -63.765824 35.964796 -25.451047 2.463905 -1.307247 -0.662400 0.681070 0.419240 -0.278930 
20.101300 16.731790 -26.580140 0.934951 -24.411158 -4.669985 -15.497656 14.755837 2.638428 3.580894 1.984212 -1.680980 -1.003104 8.918533 30.565969 -0.403915 6.858854 2.289274 -0.171960 -0.516410 0.081010 17.868483 -9.323817 4.412094 5.237511 10.828768 -28.739525 7.979123 -5.320320 28.775804 -0.144263 -3.268827 3.126977 -0.105670 0.388630 -0.079960 -2.004876 -5.135598 -8.749997 5.243449 0.283033 21.492347 -0.181960 2.679797 14.530764 6.662291 -7.915016 -24.820688 -19.429876 1.175632 34.259647 -2.602710 -4.000730 -21.934890 -6.809048 -38.612820 10.967171 -27.360099 -38.240365 -0.681404 -4.705487 -41.455216 0.160711 -3.190476 2.331472 0.919640 -0.067620 -0.049140 -0.120750 -2.707957 48.940428 12.707060 5.462102 12.842671 -26.249155 -61.581135 32.880123 -22.212019 2.620995 -1.297072 -0.707950 0.721790 0.464090 -0.278140 
19.926010 16.819900 -26.372800 -1.599806 -25.470573 -1.065040 -15.314472 14.593265 2.815999 8.776188 1.917623 3.568991 -6.029827 9.009795 19.941927 -0.331583 6.449520 2.555945 -0.239600 -0.570610 0.009200 18.035417 -9.321552 4.517638 9.388822 10.479090 -26.984929 5.945171 -4.311637 24.784668 -0.011001 -2.665941 3.406708 -0.159850 0.476730 -0.083010 -2.527425 -4.897431 -8.987818 9.698045 -1.587682 18.007680 -2.189102 1.609107 12.999133 5.275605 -7.085087 -26.542272 -18.905269 2.867658 34.522131 -2.409330 -1.764730 -16.129460 -5.597625 -42.398561 8.962655 -16.117133 -40.231212 4.651400 -12.130129 -35.055725 4.732891 -3.431032 2.039463 0.817770 0.013850 -0.106040 -0.079100 -1.457200 49.931341 14.043963 5.634836 14.025455 -24.008124 -61.937671 31.792063 -21.274070 2.645792 -1.345433 -0.695640 0.693620 0.444860 -0.230940 
19.794690 16.988750 -26.198240 -2.675133 -22.460427 -0.712921 -15.178702 14.747553 3.155331 10.082647 1.170250 6.540976 -5.706998 7.755026 13.910683 -0.333931 6.094921 2.736523 -0.261360 -0.622130 -0.045250 18.091529 -9.516122 4.212580 10.806205 7.555447 -22.584476 5.119495 -3.872033 18.389592 0.052121 -2.020465 3.722961 -0.222970 0.444550 -0.181920 -2.820493 -5.216776 -9.036617 12.743001 -4.314490 17.682964 -4.814933 0.091491 10.721478 5.253536 -6.945250 -28.912478 -22.647255 5.817824 38.387963 2.692120 -1.908390 -17.180820 -6.596497 -43.259815 10.427680 -13.278447 -41.730314 1.693140 -0.387895 -34.791969 1.247229 -3.303774 2.103320 0.961770 -0.100620 -0.083340 -0.041800 -0.611962 49.257211 14.921592 8.505039 15.432056 -21.708743 -65.127893 33.400566 -23.049865 2.480529 -1.179468 -0.754700 0.734860 0.427610 -0.247770 
19.604120 17.123780 -26.100860 -0.043874 -20.204382 -0.742187 -15.222869 14.856395 3.315813 7.500071 1.448576 6.200369 -5.098359 6.861157 11.164931 0.068688 5.361417 2.913851 -0.124630 -0.269620 -0.160930 18.041528 -9.637694 3.905429 9.996781 5.375348 -20.719806 2.961967 -3.010055 13.113413 0.030330 -1.629989 3.869005 -0.220370 0.314440 -0.012910 -2.711339 -5.473718 -8.923727 8.800295 -4.847820 18.047244 -4.841441 -1.264506 7.662105 5.110412 -8.509842 -27.774329 -25.595719 9.198657 33.412133 3.491280 1.787300 -17.022330 -9.258491 -43.569977 8.509782 -12.062203 -42.097644 -0.091883 24.527046 -35.357686 -7.737664 -3.747100 2.325563 0.681420 -0.116980 0.055850 0.060930 2.773690 50.087559 15.671112 3.392391 16.983355 -17.030274 -57.332347 24.541263 -14.759004 2.588886 -1.436292 -0.339090 0.435960 0.274240 -0.040550 
19.468310 17.264170 -25.980080 0.768874 -18.685738 0.450782 -15.227917 14.653742 3.297727 5.167697 1.599991 4.674111 -4.956311 6.181487 9.031569 0.077009 4.944311 3.031455 -0.054950 -0.154010 -0.228140 18.104395 -9.660277 3.747264 9.399033 4.388907 -19.680376 2.877952 -2.709118 8.958127 0.042015 -1.581525 3.878390 -0.171570 0.332930 0.046700 -2.890825 -5.284003 -8.646887 9.604022 -4.152496 15.873053 -6.255510 -0.534818 6.832507 5.341837 -10.950822 -25.891727 -29.444459 8.621633 27.858109 4.823030 0.046170 -16.205460 -9.955587 -40.253807 8.778189 -16.900929 -45.823941 3.059371 37.004912 -39.427287 -14.158985 -3.852669 2.379483 0.565050 -0.096050 0.033170 0.117430 3.694118 48.652950 15.274784 -2.107045 15.999394 -13.465777 -46.621853 19.683964 -8.830087 2.592670 -1.507537 -0.231390 0.358390 0.248610 0.043340 
19.352360 17.339320 -25.907590 1.266741 -16.915792 1.767977 -15.221455 14.279887 3.131267 2.824323 1.523233 1.924636 -5.298782 5.758343 8.360761 -0.099572 4.713468 3.123886 0.011530 -0.008880 -0.301650 18.220840 -9.677517 3.606397 9.112262 4.056485 -20.070754 2.776500 -2.483089 6.733010 0.116135 -1.764422 3.820590 0.004820 0.518810 0.119590 -3.188567 -4.775578 -8.218884 9.687155 -3.989186 12.145744 -7.572288 -0.936663 9.271036 3.880093 -11.298934 -21.705694 -25.007293 5.813147 21.992955 2.247260 -1.119550 -12.935800 -8.057390 -40.241437 6.392731 -16.938891 -46.740276 3.907513 39.816454 -41.314143 -16.299022 -4.158656 2.528409 0.339370 0.125340 -0.106760 0.194800 3.315746 47.853583 12.990034 -10.825890 19.777378 -9.037239 -29.486103 6.193760 -2.889739 2.647716 -1.470873 -0.219190 0.387560 0.262660 0.115360 
19.254930 17.383910 -25.827720 0.108251 -14.354726 5.039658 -15.185940 13.840854 2.825114 2.643103 0.846750 -3.223943 -7.059820 5.929539 9.358512 -0.319008 4.617381 3.200133 -0.035120 -0.067790 -0.338260 18.368993 -9.604243 3.588385 9.843595 4.740092 -22.399568 3.327424 -2.353388 5.890947 0.212323 -1.814918 3.818428 0.073370 0.686330 0.119560 -3.575480 -4.104434 -7.655898 12.465544 -4.224309 8.261577 -7.897370 -1.621816 7.385930 2.087749 -11.129811 -17.867629 -22.067146 4.109078 18.282365 -1.097390 -1.453510 -9.355130 -5.534411 -37.038533 3.425483 -14.764687 -44.145272 4.425185 30.279396 -56.871262 -15.232888 -3.955991 2.731368 0.229140 0.296910 -0.253760 0.215480 3.500775 43.654406 11.487307 -10.586867 24.069925 -6.566596 -26.270851 1.858706 -2.186784 2.567543 -1.435608 -0.320820 0.459970 0.306950 0.108330 
19.122660 17.438370 -25.789670 -0.319365 -13.539870 7.124153 -15.189332 13.623200 2.737724 1.600068 0.320006 -7.024143 -7.480053 5.750407 9.667380 -0.375131 4.350445 3.306451 -0.003990 0.012120 -0.332980 18.415909 -9.516726 3.633641 10.706988 5.444345 -24.701420 2.792421 -2.143673 6.438374 0.288621 -1.826210 3.817629 0.155690 0.753900 0.150210 -3.676790 -3.864677 -7.452296 13.028893 -4.209298 6.490270 -8.425471 -1.730213 7.547474 1.419258 -10.197642 -16.949094 -18.893920 3.990006 15.146544 -3.929810 0.095180 -5.489730 -3.833298 -36.928523 2.504312 -10.468972 -43.341412 3.153219 35.325613 -60.371766 -18.511320 -4.129051 2.845223 0.054720 0.434450 -0.329790 0.264310 2.926584 42.389898 11.199507 -8.054646 24.511773 -5.781328 -28.754455 0.314711 -2.460340 2.563603 -1.689281 -0.302090 0.409580 0.244570 0.139070 
19.001890 17.532630 -25.737330 -0.060916 -14.648766 7.609618 -15.156157 13.557093 2.896536 -0.725863 0.006900 -9.300910 -8.869271 6.033453 10.407189 -0.435912 4.360741 3.340357 -0.161660 -0.203090 -0.382790 18.424489 -9.548335 3.621772 9.150695 5.562580 -25.979731 4.762606 -2.564280 7.698034 0.341323 -1.819957 3.855433 0.053070 0.825860 0.080100 -3.731261 -3.784575 -7.529006 13.193970 -4.592575 8.060292 -9.360386 -1.527424 6.246529 1.910491 -10.959212 -17.965780 -20.707971 4.812404 14.264243 -4.492050 0.864140 -5.202270 -4.815309 -36.699280 3.504592 -6.021734 -39.730050 0.285230 45.737819 -64.492971 -25.674873 -4.227840 2.529727 0.125730 0.441740 -0.384220 0.206170 3.381447 43.043592 11.125912 -7.767391 24.698961 -6.203957 -28.838667 -1.243098 -2.020392 2.599727 -1.541299 -0.424290 0.508120 0.343640 0.095010 
18.899460 17.654910 -25.705880 -2.695891 -17.376719 6.984219 -14.993791 13.511609 2.907039 -1.518321 -0.467597 -11.693813 -7.991290 6.100903 13.382153 -0.278092 4.037674 3.396312 -0.118800 -0.113890 -0.433150 18.505804 -9.725465 3.773059 6.542113 6.069601 -24.627167 12.834025 -3.825459 8.689926 0.142499 -2.314108 3.696769 -0.019680 0.689990 0.056000 -4.061545 -3.360021 -7.653887 17.823067 -5.403478 12.668898 -11.420207 -0.696242 3.983431 2.633444 -12.504426 -20.123566 -25.666895 5.331527 15.688374 -1.648470 -0.347220 -6.908660 -6.629618 -38.017864 3.480723 -1.288753 -40.165590 -1.656441 46.398568 -62.071223 -24.159112 -4.091699 2.670821 0.179090 0.266470 -0.253740 0.262460 4.561626 45.626272 12.224396 -8.214485 22.974791 -7.278165 -28.899534 -1.923728 -1.565720 2.783203 -1.476789 -0.295170 0.440840 0.261880 0.173910 
18.755410 17.714970 -25.685700 -0.591841 -13.667619 4.312036 -15.058790 13.755436 3.309854 -8.477046 -2.312378 -16.046400 -0.025187 4.470814 22.097266 -0.230630 3.768293 3.430514 -0.074400 -0.075630 -0.348800 18.384759 -9.722095 3.582685 2.965530 4.480566 -23.354493 14.442787 -4.162195 7.844768 0.038465 -2.377298 3.660506 -0.076440 0.527190 0.047900 -3.766108 -4.061419 -7.784311 13.443686 -8.138129 18.095865 -10.006744 -3.402009 2.746266 3.199594 -12.066050 -22.047260 -26.393402 5.782856 16.155501 -2.732120 0.774970 -10.927620 -3.685536 -40.610893 2.279304 3.998879 -38.951405 -5.243961 45.205881 -53.199915 -19.724014 -4.263210 2.885735 0.288880 0.122640 -0.114630 0.261890 0.908129 48.052195 12.702419 -6.346146 22.506250 -8.514739 -31.254358 -4.108011 -1.272199 2.956058 -1.508479 -0.240370 0.386050 0.180170 0.158870 
18.591750 17.705850 -25.619170 -0.484054 -13.149438 2.723551 -14.993512 13.596250 3.408743 -9.760789 -2.692455 -15.724047 0.103146 4.337347 22.654706 -0.348162 3.874404 3.381318 0.021310 0.027080 -0.291300 18.455881 -9.832782 3.489523 1.937735 3.854465 -22.017242 15.285325 -4.368426 7.639214 -0.013934 -2.624251 3.515727 0.047660 0.533410 0.070910 -3.971177 -3.758203 -7.756188 12.711501 -9.051221 19.555565 -10.241512 -4.036186 6.949501 1.738648 -11.032454 -23.262780 -24.279387 5.721965 15.420727 -2.073620 0.273330 -12.273250 -0.909527 -45.072969 0.762668 9.820098 -33.828901 -9.333180 42.782198 -47.892825 -16.720258 -4.709872 3.173785 0.289180 0.152850 -0.131820 0.262590 0.218285 50.043457 13.082908 -9.327525 19.500392 -10.170534 -30.528711 -5.532700 -1.270004 3.006537 -1.587014 -0.263530 0.402660 0.176190 0.130900 
